<?xml version="1.0" encoding="UTF-8" standalone="no"?>
<!DOCTYPE svg PUBLIC "-//W3C//DTD SVG 1.1//EN"
 "http://www.w3.org/Graphics/SVG/1.1/DTD/svg11.dtd">
<!-- Generated by graphviz version 2.40.1 (20161225.0304)
 -->
<!-- Title: dependency&#45;cruiser output Pages: 1 -->
<svg width="499pt" height="190pt"
 viewBox="0.00 0.00 499.00 190.00" xmlns="http://www.w3.org/2000/svg" xmlns:xlink="http://www.w3.org/1999/xlink">
<g id="graph0" class="graph" transform="scale(1 1) rotate(0) translate(4 186)">
<title>dependency&#45;cruiser output</title>
<polygon fill="#ffffff" stroke="transparent" points="-4,4 -4,-186 495,-186 495,4 -4,4"/>
<g id="clust1" class="cluster">
<title>cluster_src</title>
<path fill="#ffffff" stroke="#000000" stroke-width="2" d="M12,0C12,0 479,0 479,0 485,0 491,-6 491,-12 491,-12 491,-170 491,-170 491,-176 485,-182 479,-182 479,-182 12,-182 12,-182 6,-182 0,-176 0,-170 0,-170 0,-12 0,-12 0,-6 6,0 12,0"/>
<text text-anchor="middle" x="245.5" y="-170.8" font-family="Helvetica,sans-Serif" font-weight="bold" font-size="9.00" fill="#000000">src</text>
</g>
<g id="clust2" class="cluster">
<title>cluster_src/exempted1</title>
<path fill="#ffffff" stroke="#000000" stroke-width="2" d="M425,-90C425,-90 471,-90 471,-90 477,-90 483,-96 483,-102 483,-102 483,-128 483,-128 483,-134 477,-140 471,-140 471,-140 425,-140 425,-140 419,-140 413,-134 413,-128 413,-128 413,-102 413,-102 413,-96 419,-90 425,-90"/>
<text text-anchor="middle" x="448" y="-128.8" font-family="Helvetica,sans-Serif" font-weight="bold" font-size="9.00" fill="#000000">exempted1</text>
</g>
<g id="clust3" class="cluster">
<title>cluster_src/exempted2</title>
<path fill="#ffffff" stroke="#000000" stroke-width="2" d="M100,-8C100,-8 146,-8 146,-8 152,-8 158,-14 158,-20 158,-20 158,-46 158,-46 158,-52 152,-58 146,-58 146,-58 100,-58 100,-58 94,-58 88,-52 88,-46 88,-46 88,-20 88,-20 88,-14 94,-8 100,-8"/>
<text text-anchor="middle" x="123" y="-46.8" font-family="Helvetica,sans-Serif" font-weight="bold" font-size="9.00" fill="#000000">exempted2</text>
</g>
<g id="clust4" class="cluster">
<title>cluster_src/module11</title>
<path fill="#ffffff" stroke="#000000" stroke-width="2" d="M20,-74C20,-74 227,-74 227,-74 233,-74 239,-80 239,-86 239,-86 239,-145 239,-145 239,-151 233,-157 227,-157 227,-157 20,-157 20,-157 14,-157 8,-151 8,-145 8,-145 8,-86 8,-86 8,-80 14,-74 20,-74"/>
<text text-anchor="middle" x="123.5" y="-145.8" font-family="Helvetica,sans-Serif" font-weight="bold" font-size="9.00" fill="#000000">module11</text>
</g>
<g id="clust5" class="cluster">
<title>cluster_src/module11/module2</title>
<path fill="#ffffff" stroke="#000000" stroke-width="2" d="M28,-82C28,-82 149,-82 149,-82 155,-82 161,-88 161,-94 161,-94 161,-120 161,-120 161,-126 155,-132 149,-132 149,-132 28,-132 28,-132 22,-132 16,-126 16,-120 16,-120 16,-94 16,-94 16,-88 22,-82 28,-82"/>
<text text-anchor="middle" x="88.5" y="-120.8" font-family="Helvetica,sans-Serif" font-weight="bold" font-size="9.00" fill="#000000">module2</text>
</g>
<g id="clust6" class="cluster">
<title>cluster_src/module12</title>
<path fill="#ffffff" stroke="#000000" stroke-width="2" d="M267,-90C267,-90 385,-90 385,-90 391,-90 397,-96 397,-102 397,-102 397,-128 397,-128 397,-134 391,-140 385,-140 385,-140 267,-140 267,-140 261,-140 255,-134 255,-128 255,-128 255,-102 255,-102 255,-96 261,-90 267,-90"/>
<text text-anchor="middle" x="326" y="-128.8" font-family="Helvetica,sans-Serif" font-weight="bold" font-size="9.00" fill="#000000">module12</text>
</g>
<!-- src/exempted1/index.js -->
<g id="node1" class="node">
<title>src/exempted1/index.js</title>
<g id="a_node1"><a xlink:href="src/exempted1/index.js" xlink:title="index.js">
<path fill="#ffffcc" stroke="#000000" d="M469.3333,-115C469.3333,-115 426.6667,-115 426.6667,-115 423.8333,-115 421,-112.1667 421,-109.3333 421,-109.3333 421,-103.6667 421,-103.6667 421,-100.8333 423.8333,-98 426.6667,-98 426.6667,-98 469.3333,-98 469.3333,-98 472.1667,-98 475,-100.8333 475,-103.6667 475,-103.6667 475,-109.3333 475,-109.3333 475,-112.1667 472.1667,-115 469.3333,-115"/>
<text text-anchor="middle" x="448" y="-103.8" font-family="Helvetica,sans-Serif" font-size="9.00" fill="#000000">index.js</text>
</a>
</g>
</g>
<!-- src/exempted2/index.js -->
<g id="node2" class="node">
<title>src/exempted2/index.js</title>
<g id="a_node2"><a xlink:href="src/exempted2/index.js" xlink:title="index.js">
<path fill="#ffffcc" stroke="#000000" d="M144.3333,-33C144.3333,-33 101.6667,-33 101.6667,-33 98.8333,-33 96,-30.1667 96,-27.3333 96,-27.3333 96,-21.6667 96,-21.6667 96,-18.8333 98.8333,-16 101.6667,-16 101.6667,-16 144.3333,-16 144.3333,-16 147.1667,-16 150,-18.8333 150,-21.6667 150,-21.6667 150,-27.3333 150,-27.3333 150,-30.1667 147.1667,-33 144.3333,-33"/>
<text text-anchor="middle" x="123" y="-21.8" font-family="Helvetica,sans-Serif" font-size="9.00" fill="#000000">index.js</text>
</a>
</g>
</g>
<!-- src/index.js -->
<g id="node3" class="node">
<title>src/index.js</title>
<g id="a_node3"><a xlink:href="src/index.js" xlink:title="index.js">
<path fill="#ffffcc" stroke="#000000" d="M347.3333,-41C347.3333,-41 304.6667,-41 304.6667,-41 301.8333,-41 299,-38.1667 299,-35.3333 299,-35.3333 299,-29.6667 299,-29.6667 299,-26.8333 301.8333,-24 304.6667,-24 304.6667,-24 347.3333,-24 347.3333,-24 350.1667,-24 353,-26.8333 353,-29.6667 353,-29.6667 353,-35.3333 353,-35.3333 353,-38.1667 350.1667,-41 347.3333,-41"/>
<text text-anchor="middle" x="326" y="-29.8" font-family="Helvetica,sans-Serif" font-size="9.00" fill="#000000">index.js</text>
</a>
</g>
</g>
<!-- src/module11/index.js -->
<g id="node4" class="node">
<title>src/module11/index.js</title>
<g id="a_node4"><a xlink:href="src/module11/index.js" xlink:title="index.js">
<path fill="#ffffcc" stroke="#000000" d="M225.3333,-115C225.3333,-115 182.6667,-115 182.6667,-115 179.8333,-115 177,-112.1667 177,-109.3333 177,-109.3333 177,-103.6667 177,-103.6667 177,-100.8333 179.8333,-98 182.6667,-98 182.6667,-98 225.3333,-98 225.3333,-98 228.1667,-98 231,-100.8333 231,-103.6667 231,-103.6667 231,-109.3333 231,-109.3333 231,-112.1667 228.1667,-115 225.3333,-115"/>
<text text-anchor="middle" x="204" y="-103.8" font-family="Helvetica,sans-Serif" font-size="9.00" fill="#000000">index.js</text>
</a>
</g>
</g>
<!-- src/index.js&#45;&gt;src/module11/index.js -->
<g id="edge1" class="edge">
<title>src/index.js&#45;&gt;src/module11/index.js</title>
<path fill="none" stroke="#000000" stroke-width="2" stroke-opacity="0.466667" d="M298.9337,-38C265.5036,-38 213,-38 213,-38 213,-38 213,-87.8244 213,-87.8244"/>
<polygon fill="#000000" fill-opacity="0.466667" stroke="#000000" stroke-width="2" stroke-opacity="0.466667" points="209.5001,-87.8244 213,-97.8244 216.5001,-87.8245 209.5001,-87.8244"/>
</g>
<!-- src/module11/module2/index.js -->
<g id="node5" class="node">
<title>src/module11/module2/index.js</title>
<g id="a_node5"><a xlink:href="src/module11/module2/index.js" xlink:title="index.js">
<path fill="#ffffcc" stroke="#000000" d="M147.3333,-107C147.3333,-107 104.6667,-107 104.6667,-107 101.8333,-107 99,-104.1667 99,-101.3333 99,-101.3333 99,-95.6667 99,-95.6667 99,-92.8333 101.8333,-90 104.6667,-90 104.6667,-90 147.3333,-90 147.3333,-90 150.1667,-90 153,-92.8333 153,-95.6667 153,-95.6667 153,-101.3333 153,-101.3333 153,-104.1667 150.1667,-107 147.3333,-107"/>
<text text-anchor="middle" x="126" y="-95.8" font-family="Helvetica,sans-Serif" font-size="9.00" fill="#000000">index.js</text>
</a>
</g>
</g>
<!-- src/index.js&#45;&gt;src/module11/module2/index.js -->
<g id="edge2" class="edge">
<title>src/index.js&#45;&gt;src/module11/module2/index.js</title>
<path fill="none" stroke="#000000" stroke-width="2" stroke-opacity="0.466667" d="M304.1294,-41.0249C304.1294,-57.4772 304.1294,-92 304.1294,-92 304.1294,-92 163.054,-92 163.054,-92"/>
<polygon fill="#000000" fill-opacity="0.466667" stroke="#000000" stroke-width="2" stroke-opacity="0.466667" points="163.0541,-88.5001 153.054,-92 163.054,-95.5001 163.0541,-88.5001"/>
</g>
<!-- src/module12/index.js -->
<g id="node7" class="node">
<title>src/module12/index.js</title>
<g id="a_node7"><a xlink:href="src/module12/index.js" xlink:title="index.js">
<path fill="#ffffcc" stroke="#000000" d="M383.3333,-115C383.3333,-115 340.6667,-115 340.6667,-115 337.8333,-115 335,-112.1667 335,-109.3333 335,-109.3333 335,-103.6667 335,-103.6667 335,-100.8333 337.8333,-98 340.6667,-98 340.6667,-98 383.3333,-98 383.3333,-98 386.1667,-98 389,-100.8333 389,-103.6667 389,-103.6667 389,-109.3333 389,-109.3333 389,-112.1667 386.1667,-115 383.3333,-115"/>
<text text-anchor="middle" x="362" y="-103.8" font-family="Helvetica,sans-Serif" font-size="9.00" fill="#000000">index.js</text>
</a>
</g>
</g>
<!-- src/index.js&#45;&gt;src/module12/index.js -->
<g id="edge3" class="edge">
<title>src/index.js&#45;&gt;src/module12/index.js</title>
<path fill="none" stroke="#000000" stroke-width="2" stroke-opacity="0.466667" d="M347,-41.2794C347,-41.2794 347,-87.7321 347,-87.7321"/>
<polygon fill="#000000" fill-opacity="0.466667" stroke="#000000" stroke-width="2" stroke-opacity="0.466667" points="343.5001,-87.732 347,-97.7321 350.5001,-87.7321 343.5001,-87.732"/>
</g>
<!-- src/module11/index.js&#45;&gt;src/exempted1/index.js -->
<g id="edge4" class="edge">
<title>src/module11/index.js&#45;&gt;src/exempted1/index.js</title>
<path fill="none" stroke="#000000" stroke-width="2" stroke-opacity="0.466667" d="M204,-115.3128C204,-120.869 204,-127 204,-127 204,-127 439,-127 439,-127 439,-127 439,-125.3128 439,-125.3128"/>
<polygon fill="#000000" fill-opacity="0.466667" stroke="#000000" stroke-width="2" stroke-opacity="0.466667" points="442.5001,-125.3128 439,-115.3128 435.5001,-125.3129 442.5001,-125.3128"/>
</g>
<!-- src/module11/index.js&#45;&gt;src/exempted2/index.js -->
<g id="edge5" class="edge">
<title>src/module11/index.js&#45;&gt;src/exempted2/index.js</title>
<path fill="none" stroke="#000000" stroke-width="2" stroke-opacity="0.466667" d="M195,-97.7245C195,-77.6304 195,-30 195,-30 195,-30 160.2201,-30 160.2201,-30"/>
<polygon fill="#000000" fill-opacity="0.466667" stroke="#000000" stroke-width="2" stroke-opacity="0.466667" points="160.2201,-26.5001 150.2201,-30 160.2201,-33.5001 160.2201,-26.5001"/>
</g>
<!-- src/module11/index.js&#45;&gt;src/module11/module2/index.js -->
<g id="edge6" class="edge">
<title>src/module11/index.js&#45;&gt;src/module11/module2/index.js</title>
<path fill="none" stroke="#000000" stroke-width="2" stroke-opacity="0.466667" d="M176.7194,-102C176.7194,-102 163.1335,-102 163.1335,-102"/>
<polygon fill="#000000" fill-opacity="0.466667" stroke="#000000" stroke-width="2" stroke-opacity="0.466667" points="163.1335,-98.5001 153.1335,-102 163.1335,-105.5001 163.1335,-98.5001"/>
</g>
<!-- src/module11/module2/not&#45;valid.js -->
<g id="node6" class="node">
<title>src/module11/module2/not&#45;valid.js</title>
<g id="a_node6"><a xlink:href="src/module11/module2/not-valid.js" xlink:title="not&#45;valid.js">
<path fill="#ffffcc" stroke="#000000" d="M77.3604,-107C77.3604,-107 29.6576,-107 29.6576,-107 26.8243,-107 23.991,-104.1667 23.991,-101.3333 23.991,-101.3333 23.991,-95.6667 23.991,-95.6667 23.991,-92.8333 26.8243,-90 29.6576,-90 29.6576,-90 77.3604,-90 77.3604,-90 80.1938,-90 83.0271,-92.8333 83.0271,-95.6667 83.0271,-95.6667 83.0271,-101.3333 83.0271,-101.3333 83.0271,-104.1667 80.1938,-107 77.3604,-107"/>
<text text-anchor="middle" x="53.509" y="-95.8" font-family="Helvetica,sans-Serif" font-size="9.00" fill="#000000">not&#45;valid.js</text>
</a>
</g>
</g>
<!-- src/module11/module2/not&#45;valid.js&#45;&gt;src/exempted1/index.js -->
<g id="edge9" class="edge">
<title>src/module11/module2/not&#45;valid.js&#45;&gt;src/exempted1/index.js</title>
<path fill="none" stroke="#000000" stroke-width="2" stroke-opacity="0.466667" d="M43.6727,-107.089C43.6727,-118.9774 43.6727,-139 43.6727,-139 43.6727,-139 457,-139 457,-139 457,-139 457,-125.039 457,-125.039"/>
<polygon fill="#000000" fill-opacity="0.466667" stroke="#000000" stroke-width="2" stroke-opacity="0.466667" points="460.5001,-125.039 457,-115.039 453.5001,-125.039 460.5001,-125.039"/>
</g>
<!-- src/module11/module2/not&#45;valid.js&#45;&gt;src/exempted2/index.js -->
<g id="edge10" class="edge">
<title>src/module11/module2/not&#45;valid.js&#45;&gt;src/exempted2/index.js</title>
<path fill="none" stroke="#000000" stroke-width="2" stroke-opacity="0.466667" d="M53.509,-89.9539C53.509,-70.3852 53.509,-24 53.509,-24 53.509,-24 85.934,-24 85.934,-24"/>
<polygon fill="#000000" fill-opacity="0.466667" stroke="#000000" stroke-width="2" stroke-opacity="0.466667" points="85.934,-27.5001 95.934,-24 85.934,-20.5001 85.934,-27.5001"/>
</g>
<!-- src/module11/module2/not&#45;valid.js&#45;&gt;src/index.js -->
<g id="edge8" class="edge">
<title>src/module11/module2/not&#45;valid.js&#45;&gt;src/index.js</title>
<path fill="none" stroke="#ff0000" stroke-width="2" stroke-opacity="0.466667" d="M68.2635,-89.9361C68.2635,-72.6033 68.2635,-35 68.2635,-35 68.2635,-35 288.9048,-35 288.9048,-35"/>
<polygon fill="#ff0000" fill-opacity="0.466667" stroke="#ff0000" stroke-width="2" stroke-opacity="0.466667" points="288.9049,-38.5001 298.9048,-35 288.9048,-31.5001 288.9049,-38.5001"/>
</g>
<!-- src/module11/module2/not&#45;valid.js&#45;&gt;src/module11/index.js -->
<g id="edge7" class="edge">
<title>src/module11/module2/not&#45;valid.js&#45;&gt;src/module11/index.js</title>
<path fill="none" stroke="#ff0000" stroke-width="2" stroke-opacity="0.466667" d="M63.3454,-107.0449C63.3454,-109.2422 63.3454,-111 63.3454,-111 63.3454,-111 166.8804,-111 166.8804,-111"/>
<polygon fill="#ff0000" fill-opacity="0.466667" stroke="#ff0000" stroke-width="2" stroke-opacity="0.466667" points="166.8804,-114.5001 176.8804,-111 166.8803,-107.5001 166.8804,-114.5001"/>
</g>
<!-- src/module11/module2/not&#45;valid.js&#45;&gt;src/module12/index.js -->
<g id="edge11" class="edge">
<title>src/module11/module2/not&#45;valid.js&#45;&gt;src/module12/index.js</title>
<path fill="none" stroke="#000000" stroke-width="2" stroke-opacity="0.466667" d="M38.7545,-89.6983C38.7545,-79.7728 38.7545,-65 38.7545,-65 38.7545,-65 341,-65 341,-65 341,-65 341,-87.6989 341,-87.6989"/>
<polygon fill="#000000" fill-opacity="0.466667" stroke="#000000" stroke-width="2" stroke-opacity="0.466667" points="337.5001,-87.6989 341,-97.6989 344.5001,-87.699 337.5001,-87.6989"/>
</g>
<!-- src/module12/not&#45;valid.js -->
<g id="node8" class="node">
<title>src/module12/not&#45;valid.js</title>
<g id="a_node8"><a xlink:href="src/module12/not-valid.js" xlink:title="not&#45;valid.js">
<path fill="#ffffcc" stroke="#000000" d="M313.6117,-115C313.6117,-115 268.9058,-115 268.9058,-115 266.0725,-115 263.2392,-112.1667 263.2392,-109.3333 263.2392,-109.3333 263.2392,-103.6667 263.2392,-103.6667 263.2392,-100.8333 266.0725,-98 268.9058,-98 268.9058,-98 313.6117,-98 313.6117,-98 316.4451,-98 319.2784,-100.8333 319.2784,-103.6667 319.2784,-103.6667 319.2784,-109.3333 319.2784,-109.3333 319.2784,-112.1667 316.4451,-115 313.6117,-115"/>
<text text-anchor="middle" x="291.2588" y="-103.8" font-family="Helvetica,sans-Serif" font-size="9.00" fill="#000000">not&#45;valid.js</text>
</a>
</g>
</g>
<!-- src/module12/not&#45;valid.js&#45;&gt;src/exempted1/index.js -->
<g id="edge13" class="edge">
<title>src/module12/not&#45;valid.js&#45;&gt;src/exempted1/index.js</title>
<path fill="none" stroke="#000000" stroke-width="2" stroke-opacity="0.466667" d="M309.2588,-97.6672C309.2588,-96.123 309.2588,-95 309.2588,-95 309.2588,-95 448,-95 448,-95 448,-95 448,-95.2667 448,-95.2667"/>
<polygon fill="#000000" fill-opacity="0.466667" stroke="#000000" stroke-width="2" stroke-opacity="0.466667" points="444.5004,-87.6671 448,-97.6672 451.5004,-87.6674 444.5004,-87.6671"/>
</g>
<!-- src/module12/not&#45;valid.js&#45;&gt;src/exempted2/index.js -->
<g id="edge14" class="edge">
<title>src/module12/not&#45;valid.js&#45;&gt;src/exempted2/index.js</title>
<path fill="none" stroke="#000000" stroke-width="2" stroke-opacity="0.466667" d="M281,-97.9921C281,-77.4833 281,-27 281,-27 281,-27 160.1612,-27 160.1612,-27"/>
<polygon fill="#000000" fill-opacity="0.466667" stroke="#000000" stroke-width="2" stroke-opacity="0.466667" points="160.1612,-23.5001 150.1612,-27 160.1611,-30.5001 160.1612,-23.5001"/>
</g>
<!-- src/module12/not&#45;valid.js&#45;&gt;src/index.js -->
<g id="edge12" class="edge">
<title>src/module12/not&#45;valid.js&#45;&gt;src/index.js</title>
<path fill="none" stroke="#ff0000" stroke-width="2" stroke-opacity="0.466667" d="M314.3882,-97.7206C314.3882,-97.7206 314.3882,-51.2679 314.3882,-51.2679"/>
<polygon fill="#ff0000" fill-opacity="0.466667" stroke="#ff0000" stroke-width="2" stroke-opacity="0.466667" points="317.8883,-51.2679 314.3882,-41.2679 310.8883,-51.268 317.8883,-51.2679"/>
</g>
</g>
</svg>
